<?xml version="1.0" encoding="utf-8"?>
<!-- Generator: Adobe Illustrator 15.1.0, SVG Export Plug-In . SVG Version: 6.00 Build 0)  -->
<!DOCTYPE svg PUBLIC "-//W3C//DTD SVG 1.1 Basic//EN" "http://www.w3.org/Graphics/SVG/1.1/DTD/svg11-basic.dtd">
<svg version="1.1" baseProfile="basic" id="Layer_1"
	 xmlns="http://www.w3.org/2000/svg" xmlns:xlink="http://www.w3.org/1999/xlink" x="0px" y="0px" width="792px" height="612px"
	 viewBox="0 0 792 612" xml:space="preserve">
<path fill="#F15A29" d="M432.652,214.208c0,4.418-3.582,8-8,8H236.825c-4.418,0-8-3.582-8-8V107.918c0-4.418,3.582-8,8-8h187.827
	c4.418,0,8,3.582,8,8V214.208z"/>
<g>
	<path fill="#FFFFFF" d="M270.517,161.033c0,1.981,0.44,4.292,2.641,5.062v3.191c-9.574-0.275-16.947-9.629-16.947-21.404
		c0-11.83,7.373-21.184,16.947-21.404v3.191c-2.201,0.771-2.641,3.026-2.641,5.007V161.033z M275.634,166.095
		c2.421-0.715,2.531-2.586,2.531-3.521v-9.904c0-1.21-0.055-1.486-2.256-1.871c-0.88-0.22-1.431-0.715-1.431-1.65
		c0-1.486,1.926-1.541,2.201-1.541h13.15c0.275,0,1.926-0.165,1.926,1.651c0,0.936-0.495,1.321-0.99,1.651
		c-1.156,0.715-0.991,1.375-0.991,1.65v10.895c-3.852,3.467-8.914,5.723-14.141,5.833V166.095z M275.634,126.479
		c5.777,0.496,8.749,2.036,9.354,2.036c1.65,0,1.485-2.036,3.246-2.036c1.651,0,1.541,1.486,1.541,1.761v12.271
		c0,0.275,0,1.981-1.706,1.981c-1.431,0-1.816-1.046-2.091-2.201c-1.706-7.043-5.887-10.399-10.344-10.62V126.479z"/>
	<path fill="#FFFFFF" d="M315.855,169.287c-4.347,0-7.704-0.055-11.5-2.146c-4.952-2.751-5.612-4.842-5.612-7.593v-26.081
		c0-2.036,0.055-2.366-1.871-2.971c-0.715-0.22-1.21-0.715-1.21-1.486c0-1.596,1.816-1.706,2.036-1.706h15.571
		c0.22,0,2.036,0.11,2.036,1.706c0,0.771-0.496,1.266-1.21,1.486c-1.926,0.605-1.871,0.935-1.871,2.971v26.466
		c0,0.55-0.495,4.897,3.632,6.108V169.287z M325.705,135.998c-0.88-6.878-4.402-4.732-4.402-7.098c0-1.706,2.256-1.596,2.861-1.596
		h6.273c0.605,0,2.861-0.11,2.861,1.596c0,2.366-3.521,0.22-4.402,7.098v20.744c-0.44,9.079-6.988,12.38-10.564,12.435v-3.247
		c5.062-1.541,7.043-4.402,7.374-9.299V135.998z"/>
	<path fill="#FFFFFF" d="M353.821,168.461h-14.526c-0.22,0-2.036-0.11-2.036-1.706c0-0.771,0.496-1.266,1.211-1.486
		c1.926-0.605,1.871-0.936,1.871-2.971v-28.832c0-2.036,0.055-2.366-1.871-2.971c-0.715-0.22-1.211-0.715-1.211-1.486
		c0-1.596,1.816-1.706,2.036-1.706h15.571c0.22,0,2.036,0.11,2.036,1.706c0,0.771-0.495,1.266-1.21,1.486
		c-1.926,0.605-1.871,0.935-1.871,2.971V168.461z M356.297,165.27c4.457-0.605,6.988-4.457,8.144-9.574
		c0.275-1.21,0.936-1.541,2.091-1.541c1.266,0,1.375,1.045,1.375,2.091v12.215h-11.61V165.27z"/>
	<path fill="#FFFFFF" d="M372.748,133.467c0-2.036,0.055-2.366-1.871-2.971c-0.715-0.22-1.21-0.715-1.21-1.486
		c0-1.596,1.816-1.706,2.036-1.706h14.526v34.995c0,2.036-0.055,2.366,1.871,2.971c0.715,0.22,1.21,0.715,1.21,1.486
		c0,1.596-1.815,1.706-2.036,1.706h-15.572c-0.22,0-2.036-0.11-2.036-1.706c0-0.771,0.495-1.266,1.21-1.486
		c1.926-0.605,1.871-0.936,1.871-2.971V133.467z M388.705,127.304c5.227,0,8.308,0.55,10.895,2.036
		c4.071,2.421,5.667,6.053,5.667,10.675c0,4.622-1.596,8.253-5.667,10.674c-2.587,1.485-5.668,2.036-10.895,2.036v-3.191
		c3.246-0.605,3.412-2.861,3.412-5.558v-8.309c0-2.476-0.496-4.732-3.412-5.172V127.304z"/>
</g>
<rect x="228.825" y="139.97" fill="none" width="27.385" height="41.159"/>
<rect x="316.679" y="194.822" fill="none" width="41.159" height="27.386"/>
<rect x="316.679" y="99.918" fill="none" width="41.159" height="27.386"/>
<g>
	<path fill="#FFFFFF" d="M270.925,195.014h-4.955c-0.129,0-0.59-0.038-0.59-0.572c0-0.258,0.165-0.423,0.405-0.498
		c0.645-0.202,0.626-0.312,0.626-0.994v-9.654c0-0.681,0.019-0.792-0.626-0.995c-0.24-0.074-0.405-0.239-0.405-0.497
		c0-0.536,0.461-0.572,0.59-0.572h4.955V195.014z M271.754,181.232h0.572c1.16,0,2.339,0.019,3.407,0.535
		c1.143,0.571,1.805,1.528,1.805,2.836c0,2.027-1.694,2.967-3.481,3.243v0.036c2.045,0.333,3.666,1.235,3.666,3.539
		c0,1.308-0.57,2.339-1.731,2.983c-1.179,0.664-2.34,0.609-3.648,0.609h-0.59v-1.07c1.235-0.055,1.381-0.755,1.381-1.418v-2.376
		c0-0.848-0.203-1.641-1.381-1.732v-1.069c1.345-0.109,1.381-0.903,1.381-1.583v-1.842c0-0.773-0.275-1.512-1.381-1.622V181.232z"/>
	<path fill="#FFFFFF" d="M284.749,182.024c-0.865,0.313-0.938,0.867-0.938,1.326v9.543c0,0.461,0.073,1.014,0.938,1.328v1.068
		c-3.905-0.351-5.729-3.5-5.729-7.167c0-3.666,1.824-6.816,5.729-7.167V182.024z M285.58,194.222
		c0.865-0.314,0.938-0.867,0.938-1.328v-9.543c0-0.459-0.073-1.013-0.938-1.326v-1.068c3.905,0.35,5.729,3.5,5.729,7.167
		c0,3.667-1.825,6.817-5.729,7.167V194.222z"/>
	<path fill="#FFFFFF" d="M298.096,192.95c0,0.682-0.019,0.792,0.626,0.994c0.239,0.075,0.406,0.24,0.406,0.498
		c0,0.534-0.609,0.572-0.683,0.572h-5.214c-0.072,0-0.681-0.038-0.681-0.572c0-0.258,0.166-0.423,0.406-0.498
		c0.644-0.202,0.626-0.312,0.626-0.994v-9.654c0-0.681,0.018-0.792-0.626-0.995c-0.241-0.074-0.406-0.239-0.406-0.497
		c0-0.536,0.608-0.572,0.681-0.572h5.214c0.074,0,0.683,0.036,0.683,0.572c0,0.258-0.167,0.423-0.406,0.497
		c-0.645,0.203-0.626,0.313-0.626,0.995V192.95z"/>
	<path fill="#FFFFFF" d="M306.244,195.014h-4.865c-0.073,0-0.682-0.038-0.682-0.572c0-0.258,0.167-0.423,0.406-0.498
		c0.645-0.202,0.626-0.312,0.626-0.994v-9.654c0-0.681,0.019-0.792-0.626-0.995c-0.239-0.074-0.406-0.239-0.406-0.497
		c0-0.536,0.608-0.572,0.682-0.572h5.214c0.074,0,0.681,0.036,0.681,0.572c0,0.258-0.165,0.423-0.404,0.497
		c-0.645,0.203-0.626,0.313-0.626,0.995V195.014z M307.072,193.944c1.492-0.202,2.34-1.491,2.727-3.205
		c0.092-0.406,0.313-0.516,0.701-0.516c0.424,0,0.459,0.349,0.459,0.699v4.091h-3.887V193.944z"/>
	<path fill="#FFFFFF" d="M312.33,181.232h4.862v13.782h-4.862c-0.076,0-0.683-0.038-0.683-0.572c0-0.258,0.166-0.423,0.405-0.498
		c0.646-0.202,0.627-0.312,0.627-0.994v-9.654c0-0.681,0.019-0.792-0.627-0.995c-0.239-0.074-0.405-0.239-0.405-0.497
		C311.647,181.268,312.254,181.232,312.33,181.232z M318.021,181.232h4.108v3.74c0,0.093-0.018,0.442-0.57,0.442
		c-0.313,0-0.405-0.185-0.498-0.46c-0.479-1.493-1.418-2.395-3.04-2.653V181.232z M318.021,187.386
		c0.774-0.202,1.125-0.921,1.291-1.621c0.092-0.313,0.202-0.608,0.589-0.608c0.571,0,0.479,0.664,0.479,0.81v3.979
		c0,0.148,0.092,0.812-0.479,0.812c-0.387,0-0.497-0.295-0.589-0.608c-0.166-0.7-0.517-1.419-1.291-1.621V187.386z M318.021,193.944
		c1.492-0.184,2.634-1.196,3.133-2.67c0.128-0.277,0.239-0.571,0.569-0.571c0.59,0,0.535,0.552,0.535,0.626v3.685h-4.237V193.944z"
		/>
	<path fill="#FFFFFF" d="M325.048,183.295c0-0.681,0.018-0.792-0.627-0.995c-0.24-0.074-0.405-0.239-0.405-0.497
		c0-0.536,0.607-0.572,0.682-0.572h4.863v11.718c0,0.682-0.019,0.792,0.628,0.994c0.238,0.075,0.405,0.24,0.405,0.498
		c0,0.534-0.609,0.572-0.683,0.572h-5.213c-0.074,0-0.682-0.038-0.682-0.572c0-0.258,0.166-0.423,0.405-0.498
		c0.645-0.202,0.627-0.312,0.627-0.994V183.295z M330.39,181.232h0.093c1.197,0,2.45-0.036,3.556,0.498
		c1.234,0.608,1.861,1.621,1.88,3.022c0.036,2.118-1.364,3.04-3.243,3.481v0.036c1.64,0.24,3.205,0.719,3.243,2.673v1.621
		c0,0.166-0.057,0.534,0.183,0.534c0.294,0,0.351-0.534,0.792-0.534c0.241,0,0.535,0.277,0.535,0.534
		c0,0.534-0.607,1.216-1.013,1.528c-0.625,0.517-1.29,0.665-2.083,0.665c-0.792,0-1.51-0.204-2.081-0.774
		c-0.646-0.664-0.737-1.474-0.737-2.34v-1.253c0-0.847-0.02-1.878-1.125-1.989v-1.087c0.996-0.093,1.125-0.7,1.125-1.603v-2.23
		c0-0.92-0.203-1.362-1.125-1.695V181.232z"/>
	<path fill="#FFFFFF" d="M339.167,183.295c0-0.681,0.019-0.792-0.626-0.995c-0.239-0.074-0.405-0.239-0.405-0.497
		c0-0.536,0.608-0.572,0.682-0.572h4.863v11.718c0,0.682-0.018,0.792,0.626,0.994c0.24,0.075,0.406,0.24,0.406,0.498
		c0,0.534-0.608,0.572-0.682,0.572h-5.213c-0.074,0-0.682-0.038-0.682-0.572c0-0.258,0.167-0.423,0.405-0.498
		c0.645-0.202,0.626-0.312,0.626-0.994V183.295z M344.511,181.232c1.75,0,2.782,0.185,3.647,0.682
		c1.364,0.811,1.897,2.026,1.897,3.574c0,1.547-0.533,2.763-1.897,3.574c-0.866,0.498-1.898,0.682-3.647,0.682v-1.068
		c1.086-0.204,1.142-0.958,1.142-1.861v-2.781c0-0.83-0.167-1.586-1.142-1.733V181.232z"/>
	<path fill="#FFFFFF" d="M356.991,195.014h-4.864c-0.073,0-0.681-0.038-0.681-0.572c0-0.258,0.165-0.423,0.404-0.498
		c0.646-0.202,0.626-0.312,0.626-0.994v-9.654c0-0.681,0.019-0.792-0.626-0.995c-0.239-0.074-0.404-0.239-0.404-0.497
		c0-0.536,0.607-0.572,0.681-0.572h5.215c0.073,0,0.681,0.036,0.681,0.572c0,0.258-0.167,0.423-0.405,0.497
		c-0.646,0.203-0.626,0.313-0.626,0.995V195.014z M357.819,193.944c1.493-0.202,2.34-1.491,2.727-3.205
		c0.093-0.406,0.314-0.516,0.701-0.516c0.424,0,0.46,0.349,0.46,0.699v4.091h-3.888V193.944z"/>
	<path fill="#FFFFFF" d="M366.263,185.894l-1.732,6.3c-0.294,1.123-0.037,1.437,0.59,1.713c0.294,0.129,0.552,0.239,0.552,0.609
		c0,0.515-0.589,0.498-0.958,0.498h-2.119c-0.368,0-1.031-0.02-1.031-0.554c0-0.441,0.312-0.424,0.718-0.626
		c0.387-0.203,0.884-0.626,1.235-1.934l2.211-8.088h0.054L366.263,185.894z M368.234,191.438h-2.69l0.259-1.068h2.249l-1.862-8.143
		l0.24-0.995h4.071l2.764,11.644c0.11,0.516,0.128,0.866,0.645,1.087c0.257,0.11,0.46,0.239,0.46,0.571
		c0,0.498-0.663,0.48-1.012,0.48h-4.588c-0.368,0-0.902-0.038-0.902-0.517c0-0.295,0.11-0.386,0.35-0.515
		c0.479-0.276,0.552-0.405,0.386-1.124L368.234,191.438z"/>
	<path fill="#FFFFFF" d="M374.596,181.232h2.654v1.069c-0.958,0.682-1.217,1.897-1.383,2.875c-0.055,0.405-0.147,0.883-0.663,0.883
		c-0.552,0-0.609-0.459-0.609-0.534V181.232z M378.08,181.232h4.513v11.718c0,0.682-0.019,0.792,0.627,0.994
		c0.239,0.075,0.405,0.24,0.405,0.498c0,0.534-0.609,0.572-0.683,0.572h-5.214c-0.072,0-0.682-0.038-0.682-0.572
		c0-0.258,0.166-0.423,0.406-0.498c0.645-0.202,0.627-0.312,0.627-0.994V181.232z M386.075,185.525c0,0.075-0.055,0.534-0.609,0.534
		c-0.516,0-0.607-0.478-0.663-0.883c-0.166-0.978-0.423-2.193-1.381-2.875v-1.069h2.653V185.525z"/>
	<path fill="#FFFFFF" d="M387.501,181.232h4.863v13.782h-4.863c-0.074,0-0.682-0.038-0.682-0.572c0-0.258,0.166-0.423,0.405-0.498
		c0.645-0.202,0.626-0.312,0.626-0.994v-9.654c0-0.681,0.019-0.792-0.626-0.995c-0.239-0.074-0.405-0.239-0.405-0.497
		C386.819,181.268,387.427,181.232,387.501,181.232z M393.193,181.232h4.108v3.74c0,0.093-0.02,0.442-0.571,0.442
		c-0.312,0-0.405-0.185-0.498-0.46c-0.478-1.493-1.419-2.395-3.04-2.653V181.232z M393.193,187.386
		c0.774-0.202,1.124-0.921,1.289-1.621c0.093-0.313,0.204-0.608,0.589-0.608c0.571,0,0.48,0.664,0.48,0.81v3.979
		c0,0.148,0.091,0.812-0.48,0.812c-0.385,0-0.496-0.295-0.589-0.608c-0.165-0.7-0.515-1.419-1.289-1.621V187.386z M393.193,193.944
		c1.493-0.184,2.634-1.196,3.132-2.67c0.128-0.277,0.239-0.571,0.571-0.571c0.589,0,0.534,0.552,0.534,0.626v3.685h-4.237V193.944z"
		/>
</g>
<circle fill="#FFFFFF" cx="235.949" cy="106.892" r="3.531"/>
<circle fill="#FFFFFF" cx="243.011" cy="106.892" r="3.531"/>
<circle fill="#FFFFFF" cx="425.569" cy="107.001" r="3.531"/>
<circle fill="#FFFFFF" cx="425.569" cy="215.125" r="3.531"/>
<circle fill="#FFFFFF" cx="235.908" cy="215.125" r="3.531"/>
<rect x="235.949" y="103.36" fill="#FFFFFF" width="7.062" height="7.062"/>
<circle fill="#FFFFFF" cx="242.97" cy="215.125" r="3.531"/>
<rect x="235.908" y="211.594" fill="#FFFFFF" width="7.062" height="7.062"/>
<circle fill="#FFFFFF" cx="418.507" cy="107.001" r="3.531"/>
<rect x="418.507" y="103.47" fill="#FFFFFF" width="7.062" height="7.062"/>
<circle fill="#FFFFFF" cx="418.507" cy="215.125" r="3.531"/>
<rect x="418.507" y="211.594" fill="#FFFFFF" width="7.062" height="7.062"/>
</svg>
